# Alias OBJ Model File
# Exported from SketchUp, (c) 2000-2012 Trimble Navigation Limited
# File units = inches

mtllib test1.mtl

g Mesh1 Model

usemtl _1
v 58.4099 0 -0
vt -58.4099 0
vn 0 -1 -0
v 0 0 -0
vt 0 0
v 0 0 -169.375
vt 0 169.375
v 67.125 0 -169.375
vt -67.125 169.375
f 1/1/1 2/2/1 3/3/1 4/4/1 

usemtl _
vn 0 0 1
vt 58.4099 0
v 58.4099 35.875 -0
vt 58.4099 35.875
v 0 35.875 -0
vt 0 35.875
f 2/2/2 1/5/2 5/6/2 6/7/2 

vt 3.00149 0
vn 0.998679 0 0.0513867
vt 172.601 0
v 67.125 35.875 -169.375
vt 172.601 35.875
vt 3.00149 35.875
f 1/8/3 4/9/3 7/10/3 5/11/3 

vt -67.125 0
vn 0 0 -1
v 0 35.875 -169.375
vt -67.125 35.875
f 4/12/4 3/2/4 8/7/4 7/13/4 

vt -169.375 0
vn -1 0 -0
vt -169.375 35.875
f 3/14/5 2/2/5 6/7/5 8/15/5 

usemtl _1
vn 0 1 -0
vt 67.125 169.375
f 6/2/6 5/5/6 7/16/6 8/3/6 

