{
  "accessors": [
    {
      "bufferView": 2,
      "componentType": 5126,
      "count": 362,
      "max": [
        821.44000244140625,
        50.916950225830078,
        277.56179809570312
      ],
      "min": [
        -895.0093994140625,
        -33.147640228271484,
        -133.33993530273438
      ],
      "type": "VEC3"
    },
    {
      "bufferView": 2,
      "byteOffset": 4344,
      "componentType": 5126,
      "count": 362,
      "max": [
        1,
        1,
        1
      ],
      "min": [
        -0.98078542947769165,
        -1,
        -1
      ],
      "type": "VEC3"
    },
    {
      "bufferView": 3,
      "componentType": 5126,
      "count": 362,
      "max": [
        1,
        1,
        1,
        1
      ],
      "min": [
        -1,
        -1,
        -1,
        1
      ],
      "type": "VEC4"
    },
    {
      "bufferView": 1,
      "componentType": 5126,
      "count": 362,
      "max": [
        0.99121212959289551,
        0.992401123046875
      ],
      "min": [
        0.095513850450515747,
        0.00471090292558074
      ],
      "type": "VEC2"
    },
    {
      "bufferView": 0,
      "componentType": 5125,
      "count": 1086,
      "max": [
        361
      ],
      "min": [
        0
      ],
      "type": "SCALAR"
    },
    {
      "bufferView": 2,
      "byteOffset": 8688,
      "componentType": 5126,
      "count": 296,
      "max": [
        102.23542785644531,
        662.437744140625,
        102.23539733886719
      ],
      "min": [
        -102.23537445068359,
        -869.98291015625,
        -102.23539733886719
      ],
      "type": "VEC3"
    },
    {
      "bufferView": 2,
      "byteOffset": 12240,
      "componentType": 5126,
      "count": 296,
      "max": [
        1,
        0.96595901250839233,
        1
      ],
      "min": [
        -1,
        -1,
        -1
      ],
      "type": "VEC3"
    },
    {
      "bufferView": 3,
      "byteOffset": 5792,
      "componentType": 5126,
      "count": 296,
      "max": [
        0.98078829050064087,
        0.96224266290664673,
        0.97052884101867676,
        1
      ],
      "min": [
        -0.96592599153518677,
        -0.99999833106994629,
        -0.97038173675537109,
        1
      ],
      "type": "VEC4"
    },
    {
      "bufferView": 1,
      "byteOffset": 2896,
      "componentType": 5126,
      "count": 296,
      "max": [
        0.95803266763687134,
        0.9617958664894104
      ],
      "min": [
        0.00471090292558074,
        0.23160108923912048
      ],
      "type": "VEC2"
    },
    {
      "bufferView": 0,
      "byteOffset": 4344,
      "componentType": 5125,
      "count": 1386,
      "max": [
        295
      ],
      "min": [
        0
      ],
      "type": "SCALAR"
    },
    {
      "bufferView": 2,
      "byteOffset": 15792,
      "componentType": 5126,
      "count": 340,
      "max": [
        104.03260803222656,
        656.8790283203125,
        115.24874114990234
      ],
      "min": [
        -104.03263854980469,
        -1011.9052124023438,
        -115.24874877929688
      ],
      "type": "VEC3"
    },
    {
      "bufferView": 2,
      "byteOffset": 19872,
      "componentType": 5126,
      "count": 340,
      "max": [
        0.99821382761001587,
        0.96106284856796265,
        0.99777239561080933
      ],
      "min": [
        -0.99821394681930542,
        -0.99993157386779785,
        -0.99777233600616455
      ],
      "type": "VEC3"
    },
    {
      "bufferView": 3,
      "byteOffset": 10528,
      "componentType": 5126,
      "count": 340,
      "max": [
        0.9999992847442627,
        0.93228518962860107,
        0.99999970197677612,
        1
      ],
      "min": [
        -0.9999992847442627,
        -0.99991506338119507,
        -0.9999997615814209,
        1
      ],
      "type": "VEC4"
    },
    {
      "bufferView": 1,
      "byteOffset": 5264,
      "componentType": 5126,
      "count": 340,
      "max": [
        0.85091954469680786,
        0.97819346189498901
      ],
      "min": [
        0.092846095561981201,
        0.00471090292558074
      ],
      "type": "VEC2"
    },
    {
      "bufferView": 0,
      "byteOffset": 9888,
      "componentType": 5125,
      "count": 1458,
      "max": [
        339
      ],
      "min": [
        0
      ],
      "type": "SCALAR"
    },
    {
      "bufferView": 2,
      "byteOffset": 23952,
      "componentType": 5126,
      "count": 670,
      "max": [
        271.9100341796875,
        103.928466796875,
        1416.92724609375
      ],
      "min": [
        -493.375,
        -10.62226676940918,
        -572.00518798828125
      ],
      "type": "VEC3"
    },
    {
      "bufferView": 2,
      "byteOffset": 31992,
      "componentType": 5126,
      "count": 670,
      "max": [
        1,
        1,
        0.9665834903717041
      ],
      "min": [
        -0.99943983554840088,
        -1,
        -0.99661028385162354
      ],
      "type": "VEC3"
    },
    {
      "bufferView": 3,
      "byteOffset": 15968,
      "componentType": 5126,
      "count": 670,
      "max": [
        0.9995383620262146,
        0.99996733665466309,
        0.99963665008544922,
        1
      ],
      "min": [
        -0.97169232368469238,
        -0.99996733665466309,
        -1,
        1
      ],
      "type": "VEC4"
    },
    {
      "bufferView": 1,
      "byteOffset": 7984,
      "componentType": 5126,
      "count": 670,
      "max": [
        0.80108642578125,
        0.94991588592529297
      ],
      "min": [
        0.00471090292558074,
        0.00471090292558074
      ],
      "type": "VEC2"
    },
    {
      "bufferView": 0,
      "byteOffset": 15720,
      "componentType": 5125,
      "count": 2532,
      "max": [
        669
      ],
      "min": [
        0
      ],
      "type": "SCALAR"
    },
    {
      "bufferView": 2,
      "byteOffset": 40032,
      "componentType": 5126,
      "count": 528,
      "max": [
        217.79763793945312,
        51.724388122558594,
        111.18087768554688
      ],
      "min": [
        -105.04922485351562,
        -38.880271911621094,
        -102.59474182128906
      ],
      "type": "VEC3"
    },
    {
      "bufferView": 2,
      "byteOffset": 46368,
      "componentType": 5126,
      "count": 528,
      "max": [
        0.97909516096115112,
        1,
        0.98025166988372803
      ],
      "min": [
        -0.98200768232345581,
        -1,
        -0.98025166988372803
      ],
      "type": "VEC3"
    },
    {
      "bufferView": 3,
      "byteOffset": 26688,
      "componentType": 5126,
      "count": 528,
      "max": [
        0.99871611595153809,
        0.99138998985290527,
        0.99694675207138062,
        1
      ],
      "min": [
        -0.99689012765884399,
        -0.99972820281982422,
        -0.99733918905258179,
        1
      ],
      "type": "VEC4"
    },
    {
      "bufferView": 1,
      "byteOffset": 13344,
      "componentType": 5126,
      "count": 528,
      "max": [
        0.99329060316085815,
        0.98660099506378174
      ],
      "min": [
        0.00471090292558074,
        0.00471090292558074
      ],
      "type": "VEC2"
    },
    {
      "bufferView": 0,
      "byteOffset": 25848,
      "componentType": 5125,
      "count": 1956,
      "max": [
        527
      ],
      "min": [
        0
      ],
      "type": "SCALAR"
    },
    {
      "bufferView": 2,
      "byteOffset": 52704,
      "componentType": 5126,
      "count": 164,
      "max": [
        100,
        24.315732955932617,
        100
      ],
      "min": [
        -100,
        -24.315732955932617,
        -100
      ],
      "type": "VEC3"
    },
    {
      "bufferView": 2,
      "byteOffset": 54672,
      "componentType": 5126,
      "count": 164,
      "max": [
        1,
        1,
        1
      ],
      "min": [
        -1,
        -1,
        -1
      ],
      "type": "VEC3"
    },
    {
      "bufferView": 3,
      "byteOffset": 35136,
      "componentType": 5126,
      "count": 164,
      "max": [
        1,
        6.0760703490814194e-06,
        1,
        1
      ],
      "min": [
        -1,
        -6.1559812820632942e-06,
        -1,
        1
      ],
      "type": "VEC4"
    },
    {
      "bufferView": 1,
      "byteOffset": 17568,
      "componentType": 5126,
      "count": 164,
      "max": [
        0.6999276876449585,
        0.85632228851318359
      ],
      "min": [
        0.095513850450515747,
        0.19170376658439636
      ],
      "type": "VEC2"
    },
    {
      "bufferView": 0,
      "byteOffset": 33672,
      "componentType": 5125,
      "count": 480,
      "max": [
        163
      ],
      "min": [
        0
      ],
      "type": "SCALAR"
    },
    {
      "bufferView": 2,
      "byteOffset": 56640,
      "componentType": 5126,
      "count": 384,
      "max": [
        1598.24365234375,
        51.069854736328125,
        331.3790283203125
      ],
      "min": [
        -662.74639892578125,
        -51.079624176025391,
        -369.15350341796875
      ],
      "type": "VEC3"
    },
    {
      "bufferView": 2,
      "byteOffset": 61248,
      "componentType": 5126,
      "count": 384,
      "max": [
        1,
        1,
        0.96178025007247925
      ],
      "min": [
        -1,
        -1,
        -0.96169394254684448
      ],
      "type": "VEC3"
    },
    {
      "bufferView": 3,
      "byteOffset": 37760,
      "componentType": 5126,
      "count": 384,
      "max": [
        1,
        1,
        1,
        1
      ],
      "min": [
        -1,
        -1,
        -0.99999779462814331,
        1
      ],
      "type": "VEC4"
    },
    {
      "bufferView": 1,
      "byteOffset": 18880,
      "componentType": 5126,
      "count": 384,
      "max": [
        0.99528908729553223,
        0.98906946182250977
      ],
      "min": [
        0.09148813784122467,
        0.16588315367698669
      ],
      "type": "VEC2"
    },
    {
      "bufferView": 0,
      "byteOffset": 35592,
      "componentType": 5125,
      "count": 1098,
      "max": [
        383
      ],
      "min": [
        0
      ],
      "type": "SCALAR"
    }
  ],
  "asset": {
    "extras": {
      "author": "FelikinRuslan (https://sketchfab.com/FelikinRuslan)",
      "license": "CC-BY-4.0 (http://creativecommons.org/licenses/by/4.0/)",
      "source": "https://sketchfab.com/3d-models/tools-pack-free-751df614c64f4cbeb4d9f9ea611e5715",
      "title": "Tools Pack. Free"
    },
    "generator": "Sketchfab-5.54.1",
    "version": "2.0"
  },
  "bufferViews": [
    {
      "buffer": 0,
      "byteLength": 39984,
      "byteOffset": 0,
      "name": "floatBufferViews",
      "target": 34963
    },
    {
      "buffer": 0,
      "byteLength": 21952,
      "byteOffset": 39984,
      "byteStride": 8,
      "name": "floatBufferViews",
      "target": 34962
    },
    {
      "buffer": 0,
      "byteLength": 65856,
      "byteOffset": 61936,
      "byteStride": 12,
      "name": "floatBufferViews",
      "target": 34962
    },
    {
      "buffer": 0,
      "byteLength": 43904,
      "byteOffset": 127792,
      "byteStride": 16,
      "name": "floatBufferViews",
      "target": 34962
    }
  ],
  "buffers": [
    {
      "byteLength": 171696,
      "uri": "scene.bin"
    }
  ],
  "images": [
    {
      "uri": "textures/Tools_baseColor.png"
    },
    {
      "uri": "textures/Tools_metallicRoughness.png"
    },
    {
      "uri": "textures/Tools_normal.png"
    }
  ],
  "materials": [
    {
      "doubleSided": true,
      "emissiveFactor": [
        0,
        0,
        0
      ],
      "name": "Tools",
      "normalTexture": {
        "index": 2,
        "scale": 1,
        "texCoord": 0
      },
      "pbrMetallicRoughness": {
        "baseColorFactor": [
          1,
          1,
          1,
          1
        ],
        "baseColorTexture": {
          "index": 0,
          "texCoord": 0
        },
        "metallicFactor": 1,
        "metallicRoughnessTexture": {
          "index": 1,
          "texCoord": 0
        },
        "roughnessFactor": 1
      }
    }
  ],
  "meshes": [
    {
      "name": "knife_Tools_0",
      "primitives": [
        {
          "attributes": {
            "NORMAL": 1,
            "POSITION": 0,
            "TANGENT": 2,
            "TEXCOORD_0": 3
          },
          "indices": 4,
          "material": 0,
          "mode": 4
        }
      ]
    },
    {
      "name": "turnscrew2_Tools_0",
      "primitives": [
        {
          "attributes": {
            "NORMAL": 6,
            "POSITION": 5,
            "TANGENT": 7,
            "TEXCOORD_0": 8
          },
          "indices": 9,
          "material": 0,
          "mode": 4
        }
      ]
    },
    {
      "name": "turnscrew_Tools_0",
      "primitives": [
        {
          "attributes": {
            "NORMAL": 11,
            "POSITION": 10,
            "TANGENT": 12,
            "TEXCOORD_0": 13
          },
          "indices": 14,
          "material": 0,
          "mode": 4
        }
      ]
    },
    {
      "name": "pliers_Tools_0",
      "primitives": [
        {
          "attributes": {
            "NORMAL": 16,
            "POSITION": 15,
            "TANGENT": 17,
            "TEXCOORD_0": 18
          },
          "indices": 19,
          "material": 0,
          "mode": 4
        }
      ]
    },
    {
      "name": "yardstick_Tools_0",
      "primitives": [
        {
          "attributes": {
            "NORMAL": 21,
            "POSITION": 20,
            "TANGENT": 22,
            "TEXCOORD_0": 23
          },
          "indices": 24,
          "material": 0,
          "mode": 4
        }
      ]
    },
    {
      "name": "insulatingtape_Tools_0",
      "primitives": [
        {
          "attributes": {
            "NORMAL": 26,
            "POSITION": 25,
            "TANGENT": 27,
            "TEXCOORD_0": 28
          },
          "indices": 29,
          "material": 0,
          "mode": 4
        }
      ]
    },
    {
      "name": "wrench_Tools_0",
      "primitives": [
        {
          "attributes": {
            "NORMAL": 31,
            "POSITION": 30,
            "TANGENT": 32,
            "TEXCOORD_0": 33
          },
          "indices": 34,
          "material": 0,
          "mode": 4
        }
      ]
    }
  ],
  "nodes": [
    {
      "children": [
        1
      ],
      "name": "RootNode (gltf orientation matrix)",
      "rotation": [
        -0.70710678118654746,
        -0,
        -0,
        0.70710678118654757
      ]
    },
    {
      "children": [
        2
      ],
      "name": "RootNode (model correction matrix)"
    },
    {
      "children": [
        3
      ],
      "matrix": [
        1,
        0,
        0,
        0,
        0,
        0,
        1,
        0,
        0,
        -1,
        0,
        0,
        0,
        0,
        0,
        1
      ],
      "name": "cce3836c802c45a8ab11883a736913fd.fbx"
    },
    {
      "children": [
        4,
        6,
        8,
        10,
        12,
        14,
        16
      ],
      "name": "RootNode"
    },
    {
      "children": [
        5
      ],
      "matrix": [
        1,
        0,
        0,
        0,
        0,
        1,
        0,
        0,
        0,
        0,
        1,
        0,
        768.54180908203125,
        30.203155517578125,
        -327.10049438476562,
        1
      ],
      "name": "knife"
    },
    {
      "mesh": 0,
      "name": "knife_Tools_0"
    },
    {
      "children": [
        7
      ],
      "matrix": [
        7.5497899487686482e-08,
        -0.99999999999999689,
        -2.792660508399436e-08,
        0,
        0.041804243563995425,
        3.1058324689858807e-08,
        -0.99912582051513477,
        0,
        0.99912582051513232,
        7.4264450311556374e-08,
        0.041804243563997479,
        0,
        -938.45947265625,
        101.02134704589844,
        -191.98698425292969,
        1
      ],
      "name": "turnscrew2"
    },
    {
      "mesh": 1,
      "name": "turnscrew2_Tools_0"
    },
    {
      "children": [
        9
      ],
      "matrix": [
        -4.3711390063094768e-08,
        -0.99999999999999911,
        1.1102230246251565e-16,
        0,
        -1.6292067966938717e-07,
        7.2164496600635175e-15,
        0.99999999999998679,
        0,
        -0.99999999999998579,
        4.3711390174117071e-08,
        -1.6292067961387602e-07,
        0,
        -1174.0889892578125,
        101.02134704589844,
        106.45384979248047,
        1
      ],
      "name": "turnscrew"
    },
    {
      "mesh": 2,
      "name": "turnscrew_Tools_0"
    },
    {
      "children": [
        11
      ],
      "matrix": [
        0.89692288637161255,
        0,
        0,
        0,
        0,
        0.89692288637161255,
        0,
        0,
        0,
        0,
        0.89692288637161255,
        0,
        -449.41064453125,
        4.1598973274230957,
        104.63819885253906,
        1
      ],
      "name": "pliers"
    },
    {
      "mesh": 3,
      "name": "pliers_Tools_0"
    },
    {
      "children": [
        13
      ],
      "matrix": [
        3.6642757009358498,
        0,
        -0.28968094429061209,
        0,
        0,
        3.6757078170776367,
        0,
        0,
        0.28968094429061209,
        0,
        3.6642757009358498,
        0,
        300.45782470703125,
        139.25749206542969,
        462.40945434570312,
        1
      ],
      "name": "yardstick"
    },
    {
      "mesh": 4,
      "name": "yardstick_Tools_0"
    },
    {
      "children": [
        15
      ],
      "matrix": [
        2.2495396137237549,
        0,
        0,
        0,
        0,
        2.2495396137237549,
        0,
        0,
        0,
        0,
        2.2495396137237549,
        0,
        941.2940673828125,
        54.9423828125,
        307.93426513671875,
        1
      ],
      "name": "insulatingtape"
    },
    {
      "mesh": 5,
      "name": "insulatingtape_Tools_0"
    },
    {
      "children": [
        17
      ],
      "matrix": [
        0.99315128996074542,
        0,
        -0.11683541949814479,
        0,
        0,
        1,
        0,
        0,
        0.11683541949814479,
        0,
        0.99315128996074542,
        0,
        20.410299301147461,
        53.680030822753906,
        -713.57330322265625,
        1
      ],
      "name": "wrench"
    },
    {
      "mesh": 6,
      "name": "wrench_Tools_0"
    }
  ],
  "samplers": [
    {
      "magFilter": 9729,
      "minFilter": 9987,
      "wrapS": 10497,
      "wrapT": 10497
    }
  ],
  "scene": 0,
  "scenes": [
    {
      "name": "OSG_Scene",
      "nodes": [
        0
      ]
    }
  ],
  "textures": [
    {
      "sampler": 0,
      "source": 0
    },
    {
      "sampler": 0,
      "source": 1
    },
    {
      "sampler": 0,
      "source": 2
    }
  ]
}

